<?xml version="1.0" encoding="UTF-8" standalone="no"?>
<!DOCTYPE svg PUBLIC "-//W3C//DTD SVG 1.1//EN"
 "http://www.w3.org/Graphics/SVG/1.1/DTD/svg11.dtd">
<!-- Generated by graphviz version 2.43.0 (0)
 -->
<!-- Title: A Pages: 1 -->
<svg width="210pt" height="476pt"
 viewBox="0.00 0.00 210.00 476.00" xmlns="http://www.w3.org/2000/svg" xmlns:xlink="http://www.w3.org/1999/xlink">
<g id="graph0" class="graph" transform="scale(1 1) rotate(0) translate(4 472)">
<title>A</title>
<polygon fill="white" stroke="transparent" points="-4,4 -4,-472 206,-472 206,4 -4,4"/>
<!-- 0 -->
<g id="node1" class="node">
<title>0</title>
<ellipse fill="none" stroke="black" cx="175" cy="-450" rx="27" ry="18"/>
<text text-anchor="middle" x="175" y="-446.3" font-family="Times,serif" font-size="14.00">0</text>
</g>
<!-- 1 -->
<g id="node2" class="node">
<title>1</title>
<ellipse fill="none" stroke="black" cx="59" cy="-378" rx="27" ry="18"/>
<text text-anchor="middle" x="59" y="-374.3" font-family="Times,serif" font-size="14.00">1</text>
</g>
<!-- 0&#45;&gt;1 -->
<g id="edge1" class="edge">
<title>0&#45;&gt;1</title>
<path fill="none" stroke="black" d="M155.58,-437.28C136.85,-425.98 108.28,-408.74 87.07,-395.94"/>
<polygon fill="black" stroke="black" points="88.85,-392.92 78.48,-390.75 85.23,-398.92 88.85,-392.92"/>
</g>
<!-- 3 -->
<g id="node3" class="node">
<title>3</title>
<ellipse fill="none" stroke="black" cx="175" cy="-234" rx="27" ry="18"/>
<text text-anchor="middle" x="175" y="-230.3" font-family="Times,serif" font-size="14.00">3</text>
</g>
<!-- 0&#45;&gt;3 -->
<g id="edge2" class="edge">
<title>0&#45;&gt;3</title>
<path fill="none" stroke="black" d="M171.12,-431.85C167.58,-394.74 167.31,-306.75 170.33,-262.05"/>
<polygon fill="black" stroke="black" points="173.83,-262.18 171.14,-251.94 166.85,-261.62 173.83,-262.18"/>
</g>
<!-- 2 -->
<g id="node4" class="node">
<title>2</title>
<ellipse fill="none" stroke="black" cx="27" cy="-234" rx="27" ry="18"/>
<text text-anchor="middle" x="27" y="-230.3" font-family="Times,serif" font-size="14.00">2</text>
</g>
<!-- 1&#45;&gt;2 -->
<g id="edge3" class="edge">
<title>1&#45;&gt;2</title>
<path fill="none" stroke="black" d="M50.84,-360.71C42.78,-336.7 32.28,-291.53 27.71,-262.37"/>
<polygon fill="black" stroke="black" points="31.17,-261.84 26.31,-252.43 24.24,-262.82 31.17,-261.84"/>
</g>
<!-- 4 -->
<g id="node5" class="node">
<title>4</title>
<ellipse fill="none" stroke="black" cx="91" cy="-306" rx="27" ry="18"/>
<text text-anchor="middle" x="91" y="-302.3" font-family="Times,serif" font-size="14.00">4</text>
</g>
<!-- 1&#45;&gt;4 -->
<g id="edge4" class="edge">
<title>1&#45;&gt;4</title>
<path fill="none" stroke="black" d="M66.58,-360.41C70.37,-352.13 75.03,-341.92 79.27,-332.66"/>
<polygon fill="black" stroke="black" points="82.5,-334.02 83.47,-323.47 76.13,-331.11 82.5,-334.02"/>
</g>
<!-- 3&#45;&gt;0 -->
<g id="edge7" class="edge">
<title>3&#45;&gt;0</title>
<path fill="none" stroke="black" d="M178.86,-251.94C182.41,-288.85 182.69,-376.83 179.69,-421.69"/>
<polygon fill="black" stroke="black" points="176.18,-421.6 178.88,-431.85 183.16,-422.16 176.18,-421.6"/>
</g>
<!-- 7 -->
<g id="node7" class="node">
<title>7</title>
<ellipse fill="none" stroke="black" cx="137" cy="-162" rx="27" ry="18"/>
<text text-anchor="middle" x="137" y="-158.3" font-family="Times,serif" font-size="14.00">7</text>
</g>
<!-- 3&#45;&gt;7 -->
<g id="edge8" class="edge">
<title>3&#45;&gt;7</title>
<path fill="none" stroke="black" d="M166.19,-216.76C161.58,-208.28 155.84,-197.71 150.68,-188.2"/>
<polygon fill="black" stroke="black" points="153.61,-186.27 145.77,-179.15 147.46,-189.61 153.61,-186.27"/>
</g>
<!-- 2&#45;&gt;1 -->
<g id="edge5" class="edge">
<title>2&#45;&gt;1</title>
<path fill="none" stroke="black" d="M35.17,-251.31C43.25,-275.41 53.8,-320.81 58.34,-349.94"/>
<polygon fill="black" stroke="black" points="54.88,-350.45 59.72,-359.87 61.81,-349.48 54.88,-350.45"/>
</g>
<!-- 5 -->
<g id="node6" class="node">
<title>5</title>
<ellipse fill="none" stroke="black" cx="82" cy="-90" rx="27" ry="18"/>
<text text-anchor="middle" x="82" y="-86.3" font-family="Times,serif" font-size="14.00">5</text>
</g>
<!-- 2&#45;&gt;5 -->
<g id="edge6" class="edge">
<title>2&#45;&gt;5</title>
<path fill="none" stroke="black" d="M33.42,-216.43C42.85,-192.09 60.54,-146.4 71.77,-117.4"/>
<polygon fill="black" stroke="black" points="75.11,-118.49 75.45,-107.9 68.58,-115.96 75.11,-118.49"/>
</g>
<!-- 4&#45;&gt;3 -->
<g id="edge10" class="edge">
<title>4&#45;&gt;3</title>
<path fill="none" stroke="black" d="M107.2,-291.5C119.63,-281.14 136.99,-266.67 151.03,-254.97"/>
<polygon fill="black" stroke="black" points="153.41,-257.55 158.85,-248.46 148.93,-252.17 153.41,-257.55"/>
</g>
<!-- 4&#45;&gt;2 -->
<g id="edge9" class="edge">
<title>4&#45;&gt;2</title>
<path fill="none" stroke="black" d="M77.43,-290.15C68.69,-280.6 57.17,-267.99 47.34,-257.25"/>
<polygon fill="black" stroke="black" points="49.88,-254.84 40.55,-249.82 44.72,-259.57 49.88,-254.84"/>
</g>
<!-- 4&#45;&gt;5 -->
<g id="edge11" class="edge">
<title>4&#45;&gt;5</title>
<path fill="none" stroke="black" d="M90.28,-287.85C88.72,-250.83 85.04,-163.18 83.15,-118.39"/>
<polygon fill="black" stroke="black" points="86.64,-118.08 82.72,-108.23 79.65,-118.37 86.64,-118.08"/>
</g>
<!-- 4&#45;&gt;7 -->
<g id="edge12" class="edge">
<title>4&#45;&gt;7</title>
<path fill="none" stroke="black" d="M96.46,-288.15C104.34,-263.81 119,-218.57 128.36,-189.67"/>
<polygon fill="black" stroke="black" points="131.8,-190.42 131.55,-179.82 125.14,-188.26 131.8,-190.42"/>
</g>
<!-- 6 -->
<g id="node8" class="node">
<title>6</title>
<ellipse fill="none" stroke="black" cx="82" cy="-18" rx="27" ry="18"/>
<text text-anchor="middle" x="82" y="-14.3" font-family="Times,serif" font-size="14.00">6</text>
</g>
<!-- 5&#45;&gt;6 -->
<g id="edge13" class="edge">
<title>5&#45;&gt;6</title>
<path fill="none" stroke="black" d="M76.16,-72.41C75.3,-64.51 75.05,-54.85 75.41,-45.94"/>
<polygon fill="black" stroke="black" points="78.9,-46.18 76.12,-35.96 71.92,-45.68 78.9,-46.18"/>
</g>
<!-- 7&#45;&gt;5 -->
<g id="edge15" class="edge">
<title>7&#45;&gt;5</title>
<path fill="none" stroke="black" d="M125.07,-145.81C117.79,-136.55 108.34,-124.52 100.15,-114.09"/>
<polygon fill="black" stroke="black" points="102.84,-111.86 93.91,-106.16 97.34,-116.18 102.84,-111.86"/>
</g>
<!-- 6&#45;&gt;5 -->
<g id="edge14" class="edge">
<title>6&#45;&gt;5</title>
<path fill="none" stroke="black" d="M87.88,-35.96C88.71,-43.83 88.95,-53.37 88.58,-62.19"/>
<polygon fill="black" stroke="black" points="85.07,-62.18 87.84,-72.41 92.06,-62.69 85.07,-62.18"/>
</g>
</g>
</svg>
