<?xml version="1.0" encoding="UTF-8" standalone="no"?>
<!DOCTYPE svg PUBLIC "-//W3C//DTD SVG 1.1//EN"
 "http://www.w3.org/Graphics/SVG/1.1/DTD/svg11.dtd">
<!-- Generated by graphviz version 2.43.0 (0)
 -->
<!-- Title: %3 Pages: 1 -->
<svg width="683pt" height="188pt"
 viewBox="0.00 0.00 682.59 188.00" xmlns="http://www.w3.org/2000/svg" xmlns:xlink="http://www.w3.org/1999/xlink">
<g id="graph0" class="graph" transform="scale(1 1) rotate(0) translate(4 184)">
<title>%3</title>
<polygon fill="white" stroke="transparent" points="-4,4 -4,-184 678.59,-184 678.59,4 -4,4"/>
<!-- 11013 -->
<g id="node1" class="node">
<title>11013</title>
<ellipse fill="none" stroke="black" cx="40.3" cy="-162" rx="40.09" ry="18"/>
<text text-anchor="middle" x="40.3" y="-158.3" font-family="Times,serif" font-size="14.00">11013</text>
</g>
<!-- 11005 -->
<g id="node2" class="node">
<title>11005</title>
<ellipse fill="none" stroke="black" cx="40.3" cy="-90" rx="40.09" ry="18"/>
<text text-anchor="middle" x="40.3" y="-86.3" font-family="Times,serif" font-size="14.00">11005</text>
</g>
<!-- 11013&#45;&#45;11005 -->
<g id="edge1" class="edge">
<title>11013&#45;&#45;11005</title>
<path fill="none" stroke="black" d="M40.3,-143.7C40.3,-132.85 40.3,-118.92 40.3,-108.1"/>
</g>
<!-- 11016 -->
<g id="node3" class="node">
<title>11016</title>
<ellipse fill="none" stroke="black" cx="139.3" cy="-162" rx="40.09" ry="18"/>
<text text-anchor="middle" x="139.3" y="-158.3" font-family="Times,serif" font-size="14.00">11016</text>
</g>
<!-- 11014 -->
<g id="node4" class="node">
<title>11014</title>
<ellipse fill="none" stroke="black" cx="287.3" cy="-90" rx="40.09" ry="18"/>
<text text-anchor="middle" x="287.3" y="-86.3" font-family="Times,serif" font-size="14.00">11014</text>
</g>
<!-- 11016&#45;&#45;11014 -->
<g id="edge2" class="edge">
<title>11016&#45;&#45;11014</title>
<path fill="none" stroke="black" d="M162.7,-147.34C188.58,-134.25 229.98,-114.72 257.99,-102.43"/>
</g>
<!-- 11016&#45;&#45;11014 -->
<g id="edge3" class="edge">
<title>11016&#45;&#45;11014</title>
<path fill="none" stroke="black" d="M168.55,-149.6C196.45,-137.36 237.69,-117.9 263.61,-104.8"/>
</g>
<!-- 1 -->
<g id="node8" class="node">
<title>1</title>
<ellipse fill="none" stroke="black" cx="386.3" cy="-18" rx="27" ry="18"/>
<text text-anchor="middle" x="386.3" y="-14.3" font-family="Times,serif" font-size="14.00">1</text>
</g>
<!-- 11014&#45;&#45;1 -->
<g id="edge8" class="edge">
<title>11014&#45;&#45;1</title>
<path fill="none" stroke="black" d="M303.55,-73.46C320.67,-60.25 347.24,-41.62 365.78,-29.93"/>
</g>
<!-- 11014&#45;&#45;1 -->
<g id="edge9" class="edge">
<title>11014&#45;&#45;1</title>
<path fill="none" stroke="black" d="M311.84,-75.5C330.6,-63.43 355.61,-45.77 371.49,-33.42"/>
</g>
<!-- 11017 -->
<g id="node5" class="node">
<title>11017</title>
<ellipse fill="none" stroke="black" cx="436.3" cy="-162" rx="40.09" ry="18"/>
<text text-anchor="middle" x="436.3" y="-158.3" font-family="Times,serif" font-size="14.00">11017</text>
</g>
<!-- 11015 -->
<g id="node6" class="node">
<title>11015</title>
<ellipse fill="none" stroke="black" cx="485.3" cy="-90" rx="40.09" ry="18"/>
<text text-anchor="middle" x="485.3" y="-86.3" font-family="Times,serif" font-size="14.00">11015</text>
</g>
<!-- 11017&#45;&#45;11015 -->
<g id="edge4" class="edge">
<title>11017&#45;&#45;11015</title>
<path fill="none" stroke="black" d="M442.28,-144.05C449.01,-132.73 459.41,-117.92 468.46,-106.83"/>
</g>
<!-- 11017&#45;&#45;11015 -->
<g id="edge5" class="edge">
<title>11017&#45;&#45;11015</title>
<path fill="none" stroke="black" d="M452.89,-145.46C461.99,-134.35 472.51,-119.39 479.3,-107.96"/>
</g>
<!-- 11015&#45;&#45;1 -->
<g id="edge14" class="edge">
<title>11015&#45;&#45;1</title>
<path fill="none" stroke="black" d="M460.75,-75.5C441.99,-63.43 416.98,-45.77 401.11,-33.42"/>
</g>
<!-- 11015&#45;&#45;1 -->
<g id="edge15" class="edge">
<title>11015&#45;&#45;1</title>
<path fill="none" stroke="black" d="M469.05,-73.46C451.93,-60.25 425.35,-41.62 406.81,-29.93"/>
</g>
<!-- 11018 -->
<g id="node7" class="node">
<title>11018</title>
<ellipse fill="none" stroke="black" cx="238.3" cy="-162" rx="40.09" ry="18"/>
<text text-anchor="middle" x="238.3" y="-158.3" font-family="Times,serif" font-size="14.00">11018</text>
</g>
<!-- 11018&#45;&#45;11014 -->
<g id="edge6" class="edge">
<title>11018&#45;&#45;11014</title>
<path fill="none" stroke="black" d="M244.28,-144.05C251.01,-132.73 261.41,-117.92 270.46,-106.83"/>
</g>
<!-- 11018&#45;&#45;11014 -->
<g id="edge7" class="edge">
<title>11018&#45;&#45;11014</title>
<path fill="none" stroke="black" d="M254.89,-145.46C263.99,-134.35 274.51,-119.39 281.3,-107.96"/>
</g>
<!-- 11019 -->
<g id="node9" class="node">
<title>11019</title>
<ellipse fill="none" stroke="black" cx="535.3" cy="-162" rx="40.09" ry="18"/>
<text text-anchor="middle" x="535.3" y="-158.3" font-family="Times,serif" font-size="14.00">11019</text>
</g>
<!-- 11019&#45;&#45;11015 -->
<g id="edge10" class="edge">
<title>11019&#45;&#45;11015</title>
<path fill="none" stroke="black" d="M518.48,-145.46C509.22,-134.35 498.48,-119.39 491.53,-107.96"/>
</g>
<!-- 11019&#45;&#45;11015 -->
<g id="edge11" class="edge">
<title>11019&#45;&#45;11015</title>
<path fill="none" stroke="black" d="M529.07,-144.05C522.18,-132.73 511.56,-117.92 502.36,-106.83"/>
</g>
<!-- 11020 -->
<g id="node10" class="node">
<title>11020</title>
<ellipse fill="none" stroke="black" cx="337.3" cy="-162" rx="40.09" ry="18"/>
<text text-anchor="middle" x="337.3" y="-158.3" font-family="Times,serif" font-size="14.00">11020</text>
</g>
<!-- 11020&#45;&#45;11014 -->
<g id="edge12" class="edge">
<title>11020&#45;&#45;11014</title>
<path fill="none" stroke="black" d="M320.48,-145.46C311.22,-134.35 300.48,-119.39 293.53,-107.96"/>
</g>
<!-- 11020&#45;&#45;11014 -->
<g id="edge13" class="edge">
<title>11020&#45;&#45;11014</title>
<path fill="none" stroke="black" d="M331.07,-144.05C324.18,-132.73 313.56,-117.92 304.36,-106.83"/>
</g>
<!-- 11021 -->
<g id="node11" class="node">
<title>11021</title>
<ellipse fill="none" stroke="black" cx="634.3" cy="-162" rx="40.09" ry="18"/>
<text text-anchor="middle" x="634.3" y="-158.3" font-family="Times,serif" font-size="14.00">11021</text>
</g>
<!-- 11021&#45;&#45;11015 -->
<g id="edge16" class="edge">
<title>11021&#45;&#45;11015</title>
<path fill="none" stroke="black" d="M604.88,-149.6C576.81,-137.36 535.28,-117.9 509.18,-104.8"/>
</g>
<!-- 11021&#45;&#45;11015 -->
<g id="edge17" class="edge">
<title>11021&#45;&#45;11015</title>
<path fill="none" stroke="black" d="M610.69,-147.34C584.63,-134.25 542.95,-114.72 514.77,-102.43"/>
</g>
</g>
</svg>
